<?xml version="1.0" encoding="UTF-8" standalone="no"?>
<!-- Created with Inkscape (http://www.inkscape.org/) -->

<svg
   xmlns:dc="http://purl.org/dc/elements/1.1/"
   xmlns:cc="http://creativecommons.org/ns#"
   xmlns:rdf="http://www.w3.org/1999/02/22-rdf-syntax-ns#"
   xmlns:svg="http://www.w3.org/2000/svg"
   xmlns="http://www.w3.org/2000/svg"
   xmlns:sodipodi="http://sodipodi.sourceforge.net/DTD/sodipodi-0.dtd"
   xmlns:inkscape="http://www.inkscape.org/namespaces/inkscape"
   version="1.0"
   width="224.65625"
   height="254.26529"
   id="svg2"
   inkscape:version="0.48.1 "
   sodipodi:docname="lemmling_Cartoon_cow_black_white_line_art_coloring_book_colouring.svg">
  <metadata
     id="metadata27">
    <rdf:RDF>
      <cc:Work
         rdf:about="">
        <dc:format>image/svg+xml</dc:format>
        <dc:type
           rdf:resource="http://purl.org/dc/dcmitype/StillImage" />
      </cc:Work>
    </rdf:RDF>
  </metadata>
  <sodipodi:namedview
     pagecolor="#ffffff"
     bordercolor="#666666"
     borderopacity="1"
     objecttolerance="10"
     gridtolerance="10"
     guidetolerance="10"
     inkscape:pageopacity="0"
     inkscape:pageshadow="2"
     inkscape:window-width="779"
     inkscape:window-height="603"
     id="namedview25"
     showgrid="false"
     inkscape:zoom="1.1444739"
     inkscape:cx="112.32812"
     inkscape:cy="127.13264"
     inkscape:window-x="494"
     inkscape:window-y="109"
     inkscape:window-maximized="0"
     inkscape:current-layer="svg2" />
  <defs
     id="defs4" />
  <path
     inkscape:connector-curvature="0"
     style="fill:#ffffff;fill-opacity:1;fill-rule:nonzero;stroke:#000000;stroke-width:4;stroke-linecap:round;stroke-linejoin:round;stroke-miterlimit:4;stroke-opacity:1;stroke-dasharray:none"
     id="path2383"
     d="M 221.886,132.30416 C 221.904,192.81239 172.85749,241.87357 112.34925,241.87357 51.841022,241.87357 2.7944748,192.81239 2.8125075,132.30416 2.7944991,71.795931 51.841022,22.734758 112.34925,22.734758 c 60.50824,0 109.55478,49.061173 109.53675,109.569402 z" />
  <path
     inkscape:connector-curvature="0"
     style="fill:#4d4d4d;fill-opacity:1;fill-rule:evenodd;stroke:none"
     id="path3173"
     d="m 202.1643,72.41416 c -5.40118,6.5541 -6.24204,17.00939 -4.56036,21.04543 1.24066,2.97759 9.47404,4.44202 17.34784,5.17662 -3.08352,-9.3702 -7.40519,-18.18122 -12.78748,-26.22205 z M 8.74969,101.80998 c -2.86756,9.71753 -4.40946,19.98109 -4.40629,30.62834 -0.002,5.56181 0.42338,11.02622 1.23253,16.36182 8.18155,4.7505 18.80139,20.38833 27.85515,21.56926 11.33927,1.47903 8.87421,-21.69251 1.97205,-23.17155 -6.90216,-1.47903 -9.86023,-12.32529 -10.35324,-24.15756 -0.33107,-7.94562 -4.68127,-15.67012 -16.3002,-21.23031 z m 211.53278,27.7319 c -2.91511,1.35717 -5.62341,3.39137 -7.88818,6.31671 -11.83228,15.28336 -21.69251,4.93011 -33.52479,10.35324 -11.83228,5.42313 -3.94409,19.22745 0.49301,32.53876 3.21228,9.63684 -2.6052,28.82146 4.40629,34.75732 22.43604,-19.79772 36.58491,-48.79433 36.5753,-81.06959 2.8e-4,-0.97361 -0.005,-1.92901 -0.0308,-2.89644 -0.009,0.004 -0.0221,-0.004 -0.0308,0 z m -146.91745,9.27478 c 4.93012,15.28336 -5.91614,9.86023 -7.88818,20.21347 -1.97205,10.35324 33.03177,13.31131 38.94791,34.51081 5.91614,21.1995 32.53877,9.86023 32.04575,-1.97205 -0.49301,-11.83227 -17.74841,-17.2554 -13.31131,-24.15756 4.43711,-6.90216 13.31131,-21.1995 13.31131,-21.1995 l -63.10548,-7.39517 z" />
  <path
     inkscape:connector-curvature="0"
     style="fill:#333333;fill-opacity:1;fill-rule:nonzero;stroke:#000000;stroke-width:3.99999976;stroke-linecap:round;stroke-linejoin:round;stroke-miterlimit:4;stroke-opacity:1"
     id="path3172"
     d="m 120.52953,242.87379 c 0,9.09078 14.66533,9.38135 32.73511,9.38135 18.06978,0 32.73512,0.69349 32.73512,-9.38135 0,-17.71594 -14.66534,-32.0941 -32.73512,-32.0941 -18.06978,0 -32.73511,14.37816 -32.73511,32.0941 z" />
  <path
     inkscape:connector-curvature="0"
     style="fill:#000000;fill-opacity:0.31372549;fill-rule:evenodd;stroke:#000000;stroke-width:4;stroke-linecap:butt;stroke-linejoin:round;stroke-miterlimit:4;stroke-opacity:1;stroke-dasharray:none"
     id="path3174"
     d="m 165.85507,251.6542 c 0,-16.36756 -9.44283,-26.43991 -9.44283,-26.43991 0,0 3.77713,13.84948 3.14761,26.43991 l 6.29522,0 z" />
  <path
     inkscape:connector-curvature="0"
     style="fill:#ffffff;fill-opacity:1;fill-rule:nonzero;stroke:#000000;stroke-width:4;stroke-linecap:round;stroke-linejoin:round;stroke-miterlimit:4;stroke-opacity:1"
     id="path3155"
     d="M 109.6875,2.00791 C 79.55825,2.618499 58.755826,13.661179 46.0625,30.75791 21.99806,28.170118 2,54.38291 2,54.38291 c 0,2e-6 18.89113,9.44632 32.0625,1.53125 C 31.663271,64.62588 30.5,74.02011 30.5,83.82041 c 0,45.17448 56.125502,81.84375 81.84375,81.84375 26.71661,0 81.84375,-36.66927 81.84375,-81.84375 0,-9.8003 -1.16389,-19.19453 -3.5625,-27.90625 13.17137,7.91507 32.03125,-1.531251 32.03125,-1.53125 0,0 -19.97122,-26.20456 -44.03125,-23.625 -13.06166,-17.594988 -34.70768,-28.75 -66.28125,-28.75 -0.89395,0 -1.77818,-0.01779 -2.65625,0 z" />
  <path
     inkscape:connector-curvature="0"
     style="fill:#4d4d4d;fill-opacity:1;fill-rule:evenodd;stroke:none"
     id="path3185"
     d="m 126.5625,3.97666 c 25.72095,17.92613 -3.04956,17.14231 -8.75,23.28125 -6.5,7 -9,17 -1.5,23.5 7.5,6.5 46,17.50001 51.5,-0.5 2.83534,-9.27929 -0.56613,-20.80215 -2.34375,-30.96875 C 155.45121,11.4277 142.56426,6.04694 126.5625,3.97666 z" />
  <path
     inkscape:connector-curvature="0"
     style="fill:#ffffff;fill-opacity:1;fill-rule:nonzero;stroke:#000000;stroke-width:3.99999952;stroke-linecap:round;stroke-linejoin:round;stroke-miterlimit:4;stroke-opacity:1;stroke-dasharray:none"
     id="path3157"
     d="m 108.71972,71.833884 c 0.004,12.518942 -10.143832,22.669527 -22.662774,22.669527 -12.518943,0 -22.666502,-10.150585 -22.662771,-22.669527 -0.0037,-12.518943 10.143828,-22.669528 22.662771,-22.669528 12.518942,0 22.666504,10.150585 22.662774,22.669528 z" />
  <path
     inkscape:connector-curvature="0"
     style="fill:#ffffff;fill-opacity:1;fill-rule:nonzero;stroke:#000000;stroke-width:3.99999952;stroke-linecap:round;stroke-linejoin:round;stroke-miterlimit:4;stroke-opacity:1;stroke-dasharray:none"
     id="path3159"
     d="m 161.45192,71.833884 c 0.004,12.518942 -10.14383,22.669527 -22.66277,22.669527 -12.51895,0 -22.66651,-10.150585 -22.66278,-22.669527 -0.004,-12.518943 10.14383,-22.669528 22.66278,-22.669528 12.51894,0 22.6665,10.150585 22.66277,22.669528 z" />
  <path
     inkscape:connector-curvature="0"
     style="fill:#000000;fill-opacity:1;fill-rule:nonzero;stroke:none"
     id="path3161"
     d="m 141.30723,75.833881 c 0.001,4.172978 -3.38127,7.556506 -7.55425,7.556506 -4.17298,0 -7.5555,-3.383528 -7.55425,-7.556506 -0.001,-4.172979 3.38127,-7.556506 7.55425,-7.556506 4.17298,0 7.5555,3.383527 7.55425,7.556506 z" />
  <path
     inkscape:connector-curvature="0"
     style="fill:#000000;fill-opacity:1;fill-rule:nonzero;stroke:none"
     id="path3163"
     d="m 99.276893,75.833881 c 0.0012,4.172978 -3.381275,7.556506 -7.554254,7.556506 -4.172979,0 -7.555497,-3.383528 -7.554254,-7.556506 -0.0012,-4.172979 3.381275,-7.556506 7.554254,-7.556506 4.172979,0 7.555497,3.383527 7.554254,7.556506 z" />
  <path
     inkscape:connector-curvature="0"
     style="fill:#ffffff;fill-opacity:1;fill-rule:nonzero;stroke:#000000;stroke-width:4;stroke-linecap:round;stroke-linejoin:round;stroke-miterlimit:4;stroke-opacity:1;stroke-dasharray:none"
     id="path3210"
     d="m 112.34375,115.25791 c -19.862065,0 -35.968753,13.216 -35.96875,29.5 0,3.01956 0.564111,5.94363 1.59375,8.6875 12.711632,7.74342 25.39435,12.21875 34.375,12.21875 9.19823,0 21.75693,-4.33121 34.28125,-11.875 1.11318,-2.84275 1.71875,-5.88658 1.71875,-9.03125 0,-16.284 -16.13793,-29.5 -36,-29.5 z" />
  <path
     inkscape:connector-curvature="0"
     style="fill:#333333;fill-opacity:1;fill-rule:nonzero;stroke:#000000;stroke-width:3.99999976;stroke-linecap:round;stroke-linejoin:round;stroke-miterlimit:4;stroke-opacity:1"
     id="path3329"
     d="m 105.53172,242.87379 c 0,9.09078 -14.66533,9.38135 -32.73511,9.38135 -18.06978,0 -32.73512,0.69349 -32.73512,-9.38135 0,-17.71594 14.66534,-32.0941 32.73512,-32.0941 18.06978,0 32.73511,14.37816 32.73511,32.0941 z" />
  <path
     inkscape:connector-curvature="0"
     style="fill:#000000;fill-opacity:0.31372549;fill-rule:evenodd;stroke:#000000;stroke-width:4;stroke-linecap:butt;stroke-linejoin:round;stroke-miterlimit:4;stroke-opacity:1;stroke-dasharray:none"
     id="path3331"
     d="m 60.20618,251.6542 c 0,-16.36756 9.44283,-26.43991 9.44283,-26.43991 0,0 -3.77713,13.84948 -3.14761,26.43991 l -6.29522,0 z" />
  <path
     inkscape:connector-curvature="0"
     style="fill:#000000;fill-opacity:1;fill-rule:nonzero;stroke:none"
     id="path2398"
     d="m 128.94469,140.46522 c -2.29272,3.97309 -6.50025,5.8386 -9.39677,4.16629 -2.89654,-1.67231 -3.38472,-6.2489 -1.09029,-10.22099 2.29273,-3.9731 6.50026,-5.83861 9.39679,-4.1663 2.89653,1.67231 3.38471,6.2489 1.09027,10.221 z" />
  <path
     inkscape:connector-curvature="0"
     style="fill:#000000;fill-opacity:1;fill-rule:nonzero;stroke:none"
     id="path2412"
     d="m 96.20764,140.46522 c 2.29272,3.97309 6.50025,5.8386 9.39677,4.16629 2.89654,-1.67231 3.38472,-6.2489 1.09029,-10.22099 -2.29273,-3.9731 -6.50026,-5.83861 -9.39679,-4.1663 -2.89653,1.67231 -3.38471,6.2489 -1.09027,10.221 z" />
  <path
     inkscape:connector-curvature="0"
     style="fill:#333333;fill-opacity:1;fill-rule:evenodd;stroke:#000000;stroke-width:4;stroke-linecap:butt;stroke-linejoin:miter;stroke-miterlimit:4;stroke-opacity:1;stroke-dasharray:none"
     id="path2399"
     d="m 53.3125,32.2653 c -7.3329,-1.32806 -15.5,-21.5 -12.5,-25.5 3,-4 26.3741,4.46627 27,13.5 0.55216,7.96942 -5.38595,13.65064 -14.5,12 z" />
  <path
     inkscape:connector-curvature="0"
     style="fill:#333333;fill-opacity:1;fill-rule:evenodd;stroke:#000000;stroke-width:4;stroke-linecap:butt;stroke-linejoin:miter;stroke-miterlimit:4;stroke-opacity:1;stroke-dasharray:none"
     id="path3171"
     d="m 170.21075,32.2653 c 7.3329,-1.32806 15.5,-21.5 12.5,-25.5 -3,-4 -26.3741,4.46627 -27,13.5 -0.55216,7.96942 5.38595,13.65064 14.5,12 z" />
</svg>
