<?xml version="1.0" encoding="UTF-8" standalone="no"?>
<!-- Created with Inkscape (http://www.inkscape.org/) -->
<svg xmlns:dc="http://purl.org/dc/elements/1.1/" xmlns:cc="http://creativecommons.org/ns#" xmlns:rdf="http://www.w3.org/1999/02/22-rdf-syntax-ns#" xmlns:svg="http://www.w3.org/2000/svg" xmlns="http://www.w3.org/2000/svg" xmlns:sodipodi="http://sodipodi.sourceforge.net/DTD/sodipodi-0.dtd" xmlns:inkscape="http://www.inkscape.org/namespaces/inkscape" width="199.29642" height="399.99997" id="svg2" sodipodi:version="0.32" inkscape:version="0.45+devel" sodipodi:docname="horse.svg" inkscape:output_extension="org.inkscape.output.svg.inkscape" version="1.0">
  <defs id="defs4">
    <inkscape:perspective sodipodi:type="inkscape:persp3d" inkscape:vp_x="-50 : 600 : 1" inkscape:vp_y="0 : 1000 : 0" inkscape:vp_z="700 : 600 : 1" inkscape:persp3d-origin="300 : 400 : 1" id="perspective25"/>
    <filter inkscape:collect="always" id="filter3219">
      <feGaussianBlur inkscape:collect="always" stdDeviation="4.1464287" id="feGaussianBlur3221"/>
    </filter>
    <filter inkscape:collect="always" id="filter3307" x="-0.036511704" width="1.0730234" y="-0.44118312" height="1.8823662">
      <feGaussianBlur inkscape:collect="always" stdDeviation="4.4566226" id="feGaussianBlur3309"/>
    </filter>
  </defs>
  <sodipodi:namedview id="base" pagecolor="#ffffff" bordercolor="#666666" borderopacity="1.0" gridtolerance="10000" guidetolerance="10" objecttolerance="10" inkscape:pageopacity="0.0" inkscape:pageshadow="2" inkscape:zoom="0.50000001" inkscape:cx="100.45627" inkscape:cy="306.95667" inkscape:document-units="px" inkscape:current-layer="layer1" showgrid="false" inkscape:window-width="1000" inkscape:window-height="727" inkscape:window-x="5" inkscape:window-y="54"/>
  <metadata id="metadata7">
    <rdf:RDF>
      <cc:Work rdf:about="">
        <dc:format>image/svg+xml</dc:format>
        <dc:type rdf:resource="http://purl.org/dc/dcmitype/StillImage"/>
      </cc:Work>
    </rdf:RDF>
  </metadata>
  <g inkscape:label="Layer 1" inkscape:groupmode="layer" id="layer1" transform="translate(-240.41379,-167.93022)">
    <path sodipodi:type="arc" style="opacity:0.55;fill:#000000;fill-opacity:1;fill-rule:nonzero;stroke:none;stroke-width:0.80396587;stroke-linecap:round;stroke-linejoin:round;stroke-miterlimit:4;stroke-dasharray:none;stroke-opacity:1;filter:url(#filter3307)" id="path3293" sodipodi:cx="364.66507" sodipodi:cy="675.57526" sodipodi:rx="146.47212" sodipodi:ry="12.121831" d="M 511.13719,675.57526 A 146.47212,12.121831 0 1 1 218.19295,675.57526 A 146.47212,12.121831 0 1 1 511.13719,675.57526 z" transform="matrix(0.680322,0,0,3.9046047,91.972324,-2117.2551)"/>
    <path id="path3271" style="fill:#63412e;fill-opacity:1;fill-rule:evenodd;stroke:#000000;stroke-width:9.68728352;stroke-linecap:round;stroke-linejoin:round;stroke-miterlimit:4;stroke-dasharray:none;stroke-opacity:1" d="M 396.3603,408.785 L 389.26485,529.30057 L 380.64894,507.34267 L 370.51257,529.84343 L 367.72508,431.58525 L 396.3603,408.785 z M 286.63417,408.785 L 293.72963,529.30057 L 302.34553,507.34267 L 312.4819,529.84343 L 315.2694,431.58525 L 286.63417,408.785 z" sodipodi:nodetypes="cccccccccccc"/>
    <path sodipodi:type="arc" style="opacity:1;fill:#63412e;fill-opacity:1;fill-rule:nonzero;stroke:#000000;stroke-width:26.21878242;stroke-miterlimit:4;stroke-dasharray:none;stroke-opacity:1" id="path2388" sodipodi:cx="355.71429" sodipodi:cy="372.36218" sodipodi:rx="238.57143" sodipodi:ry="215.71429" d="M 594.28572,372.36218 A 238.57143,215.71429 0 1 1 117.14287,372.36218 A 238.57143,215.71429 0 1 1 594.28572,372.36218 z" transform="matrix(0.3321539,0,0,0.3545182,222.50467,230.84766)"/>
    <path style="opacity:1;fill:#63412e;fill-opacity:1;fill-rule:nonzero;stroke:#000000;stroke-width:9.68728352;stroke-miterlimit:4;stroke-dasharray:none;stroke-opacity:1" d="M 341.95049,203.29876 C 321.13953,203.29876 304.24493,222.77832 304.24492,246.79088 C 304.24492,253.87752 305.73179,309.99175 308.34058,315.90567 C 318.11154,311.37989 329.23731,308.81298 341.04212,308.81298 C 353.4571,308.81298 365.11514,311.66212 375.24167,316.63366 C 378.05428,310.54414 379.65606,254.16854 379.65606,246.79088 C 379.65606,222.77832 362.76145,203.29877 341.95049,203.29876 z" id="path3195" sodipodi:nodetypes="cscscsc"/>
    <g id="g3184" transform="matrix(0.3760241,0,0,0.4619994,207.51649,259.69188)" style="stroke-width:23.24199486;stroke-miterlimit:4;stroke-dasharray:none">
      <path transform="translate(-22.857143,-270.28571)" d="M 517.14285,466.64789 A 137.85715,92.85714 0 1 1 241.42856,466.64789 A 137.85715,92.85714 0 1 1 517.14285,466.64789 z" sodipodi:ry="92.85714" sodipodi:rx="137.85715" sodipodi:cy="466.64789" sodipodi:cx="379.28571" id="path3160" style="opacity:1;fill:#d38d5f;fill-opacity:1;fill-rule:nonzero;stroke:#000000;stroke-width:23.24199486;stroke-miterlimit:4;stroke-dasharray:none;stroke-opacity:1" sodipodi:type="arc"/>
      <path d="M 336.27255,156.29075 C 336.27255,177.19202 321.97104,194.15536 304.34952,194.15536 C 286.72802,194.15536 272.42651,177.19202 272.42651,156.29075 C 272.42651,135.38948 286.72802,118.42613 304.34952,118.42613 C 321.97104,118.42613 336.27255,135.38948 336.27255,156.29075 z M 440.43064,156.29075 C 440.43064,177.19202 426.12913,194.15536 408.50761,194.15536 C 390.88611,194.15536 376.5846,177.19202 376.5846,156.29075 C 376.5846,135.38948 390.88611,118.42613 408.50761,118.42613 C 426.12913,118.42613 440.43064,135.38948 440.43064,156.29075 z" style="fill:#917c6f;fill-opacity:1;fill-rule:nonzero;stroke:#000000;stroke-width:23.24199486;stroke-miterlimit:4;stroke-dasharray:none;stroke-opacity:1" id="path3162"/>
    </g>
    <path d="M 414.28571,40.647908 C 453.41855,54.459258 465.79855,1.9235377 482.14286,-40.780672 C 473.70399,32.236338 462.06993,92.640718 435.71429,94.933618 C 432.04407,74.986308 431.52559,53.358068 414.28571,40.647908 z M 301.07143,40.647908 C 261.93859,54.459258 249.55859,1.9235377 233.21428,-40.780672 C 241.65315,32.236338 253.28721,92.640718 279.64285,94.933618 C 283.31307,74.986308 283.83155,53.358068 301.07143,40.647908 z" style="fill:#000000;fill-opacity:1;fill-rule:evenodd;stroke:#000000;stroke-width:15;stroke-linecap:round;stroke-linejoin:round;stroke-miterlimit:4;stroke-dasharray:none;stroke-opacity:1;filter:url(#filter3219)" id="path3205" transform="matrix(0.5166551,0,0,0.5166551,156.87495,192.87468)"/>
    <path id="path3200" style="fill:#39251a;fill-opacity:1;fill-rule:evenodd;stroke:#000000;stroke-width:7.74982691;stroke-linecap:round;stroke-linejoin:round;stroke-miterlimit:4;stroke-dasharray:none;stroke-opacity:1" d="M 370.91777,213.87563 C 372.92668,202.15174 389.29739,185.33963 405.97651,171.80513 C 401.61653,209.52974 395.60573,240.73798 381.98896,241.92262 C 380.09272,231.61674 379.82484,220.4424 370.91777,213.87563 z M 312.42503,213.87563 C 301.27615,180.54833 288.70171,180.96996 277.36629,171.80513 C 281.72628,209.52974 287.73707,240.73798 301.35385,241.92262 C 303.25009,231.61674 303.51796,220.4424 312.42503,213.87563 z" sodipodi:nodetypes="cccccccc"/>
    <g id="g3212" transform="matrix(0.4309462,0,0,0.5166551,186.93923,189.3727)">
      <path id="path3190" d="M 288.90438,96.966235 C 281.18666,98.131699 276.44188,121.3413 278.30423,148.80816 C 279.39003,164.82198 282.4923,178.75486 286.41463,187.35927 C 292.20254,182.73698 298.47648,179.36081 305.12122,177.36786 C 306.61252,168.3663 307.09867,156.88607 306.26466,144.58581 C 304.4023,117.11897 296.6221,95.800784 288.90438,96.966235 z" style="fill:#ffffff;fill-opacity:1;fill-rule:nonzero;stroke:#000000;stroke-width:3.16230655;stroke-miterlimit:4;stroke-opacity:1"/>
      <path transform="matrix(0.6367807,-9.6161301e-2,0.1006747,1.4847923,46.051308,-359.51971)" d="M 338.57143,367.00504 A 8.2142859,16.428572 0 1 1 322.14286,367.00504 A 8.2142859,16.428572 0 1 1 338.57143,367.00504 z" sodipodi:ry="16.428572" sodipodi:rx="8.2142859" sodipodi:cy="367.00504" sodipodi:cx="330.35715" id="path3191" style="fill:#000000;fill-opacity:1;fill-rule:nonzero;stroke:#000000;stroke-width:4;stroke-miterlimit:4;stroke-dasharray:none;stroke-opacity:1" sodipodi:type="arc"/>
      <path style="fill:#ffffff;fill-opacity:1;fill-rule:nonzero;stroke:#000000;stroke-width:3.16230655;stroke-miterlimit:4;stroke-opacity:1" d="M 430.72308,101.91598 C 438.44079,103.08145 443.18558,126.29105 441.32322,153.75791 C 440.23742,169.77172 437.13515,183.70461 433.21282,192.30902 C 427.42491,187.68673 421.15098,184.31056 414.50623,182.31761 C 413.01493,173.31605 412.52879,161.83582 413.36279,149.53556 C 415.22515,122.06871 423.00536,100.75053 430.72308,101.91598 z" id="path3204"/>
      <path sodipodi:type="arc" style="fill:#000000;fill-opacity:1;fill-rule:nonzero;stroke:#000000;stroke-width:4;stroke-miterlimit:4;stroke-dasharray:none;stroke-opacity:1" id="path3206" sodipodi:cx="330.35715" sodipodi:cy="367.00504" sodipodi:rx="8.2142859" sodipodi:ry="16.428572" d="M 338.57143,367.00504 A 8.2142859,16.428572 0 1 1 322.14286,367.00504 A 8.2142859,16.428572 0 1 1 338.57143,367.00504 z" transform="matrix(-0.6367807,-9.6161301e-2,-0.1006747,1.4847923,673.57615,-354.56996)"/>
    </g>
  </g>
</svg>